<mxfile host="app.diagrams.net" modified="2021-08-14T14:21:32.535Z" agent="5.0 (Windows NT 10.0; Win64; x64) AppleWebKit/537.36 (KHTML, like Gecko) Chrome/92.0.4515.131 Safari/537.36" etag="NL36nUNDzha9wysxiYCI" version="14.9.6" type="github">
  <diagram id="NarO45xKuIbuxQ_5TALE" name="Page-1">
    <mxGraphModel dx="1038" dy="579" grid="0" gridSize="10" guides="1" tooltips="1" connect="1" arrows="1" fold="1" page="1" pageScale="1" pageWidth="827" pageHeight="1169" math="0" shadow="0">
      <root>
        <mxCell id="0" />
        <mxCell id="1" parent="0" />
        <mxCell id="mGwRWlhZ4jW7iht2gdLm-2" value="" style="endArrow=classic;html=1;" edge="1" parent="1">
          <mxGeometry x="10" y="20" width="50" height="50" as="geometry">
            <mxPoint x="179.5" y="230" as="sourcePoint" />
            <mxPoint x="180" y="250" as="targetPoint" />
            <Array as="points">
              <mxPoint x="180" y="240" />
            </Array>
          </mxGeometry>
        </mxCell>
        <mxCell id="mGwRWlhZ4jW7iht2gdLm-3" value="Get Massage Registration Done" style="ellipse;whiteSpace=wrap;html=1;" vertex="1" parent="1">
          <mxGeometry x="110" y="310" width="120" height="40" as="geometry" />
        </mxCell>
        <mxCell id="mGwRWlhZ4jW7iht2gdLm-4" value="" style="endArrow=classic;html=1;" edge="1" parent="1">
          <mxGeometry x="10" y="10" width="50" height="50" as="geometry">
            <mxPoint x="179.5" y="290" as="sourcePoint" />
            <mxPoint x="180" y="310" as="targetPoint" />
            <Array as="points">
              <mxPoint x="180" y="300" />
            </Array>
          </mxGeometry>
        </mxCell>
        <mxCell id="mGwRWlhZ4jW7iht2gdLm-5" value="Enter Submit" style="ellipse;whiteSpace=wrap;html=1;" vertex="1" parent="1">
          <mxGeometry x="140" y="250" width="80" height="40" as="geometry" />
        </mxCell>
        <mxCell id="mGwRWlhZ4jW7iht2gdLm-6" value="" style="endArrow=classic;html=1;exitX=1;exitY=0.5;exitDx=0;exitDy=0;" edge="1" parent="1" source="mGwRWlhZ4jW7iht2gdLm-3">
          <mxGeometry x="10" y="40" width="50" height="50" as="geometry">
            <mxPoint x="240" y="320" as="sourcePoint" />
            <mxPoint x="420" y="60" as="targetPoint" />
            <Array as="points">
              <mxPoint x="250" y="330" />
              <mxPoint x="250" y="310" />
              <mxPoint x="360" y="310" />
              <mxPoint x="360" y="230" />
              <mxPoint x="360" y="60" />
            </Array>
          </mxGeometry>
        </mxCell>
        <mxCell id="mGwRWlhZ4jW7iht2gdLm-7" value="Login" style="ellipse;whiteSpace=wrap;html=1;" vertex="1" parent="1">
          <mxGeometry x="425" y="40" width="60" height="40" as="geometry" />
        </mxCell>
        <mxCell id="mGwRWlhZ4jW7iht2gdLm-8" value="" style="endArrow=classic;html=1;" edge="1" parent="1">
          <mxGeometry x="10" y="-10" width="50" height="50" as="geometry">
            <mxPoint x="454.5" y="80" as="sourcePoint" />
            <mxPoint x="455" y="100" as="targetPoint" />
            <Array as="points">
              <mxPoint x="455" y="90" />
            </Array>
          </mxGeometry>
        </mxCell>
        <mxCell id="mGwRWlhZ4jW7iht2gdLm-9" value="Click at Login" style="rounded=1;whiteSpace=wrap;html=1;" vertex="1" parent="1">
          <mxGeometry x="385.5" y="100" width="140" height="30" as="geometry" />
        </mxCell>
        <mxCell id="mGwRWlhZ4jW7iht2gdLm-10" value="" style="endArrow=classic;html=1;" edge="1" parent="1">
          <mxGeometry x="10" y="-20" width="50" height="50" as="geometry">
            <mxPoint x="454.5" y="130" as="sourcePoint" />
            <mxPoint x="455" y="150" as="targetPoint" />
            <Array as="points">
              <mxPoint x="455" y="140" />
            </Array>
          </mxGeometry>
        </mxCell>
        <mxCell id="mGwRWlhZ4jW7iht2gdLm-11" value="Enter Email" style="ellipse;whiteSpace=wrap;html=1;" vertex="1" parent="1">
          <mxGeometry x="365" y="170" width="60" height="40" as="geometry" />
        </mxCell>
        <mxCell id="mGwRWlhZ4jW7iht2gdLm-12" value="Enter Password" style="ellipse;whiteSpace=wrap;html=1;" vertex="1" parent="1">
          <mxGeometry x="520" y="170" width="60" height="40" as="geometry" />
        </mxCell>
        <mxCell id="mGwRWlhZ4jW7iht2gdLm-13" value="" style="endArrow=classic;html=1;" edge="1" parent="1">
          <mxGeometry x="36" y="-27" width="50" height="50" as="geometry">
            <mxPoint x="546" y="153" as="sourcePoint" />
            <mxPoint x="547" y="173" as="targetPoint" />
            <Array as="points">
              <mxPoint x="546.5" y="163" />
            </Array>
          </mxGeometry>
        </mxCell>
        <mxCell id="mGwRWlhZ4jW7iht2gdLm-14" value="" style="endArrow=none;html=1;entryX=0.5;entryY=1;entryDx=0;entryDy=0;" edge="1" parent="1" target="mGwRWlhZ4jW7iht2gdLm-11">
          <mxGeometry x="10" y="40" width="50" height="50" as="geometry">
            <mxPoint x="395" y="300" as="sourcePoint" />
            <mxPoint x="440" y="250" as="targetPoint" />
          </mxGeometry>
        </mxCell>
        <mxCell id="mGwRWlhZ4jW7iht2gdLm-15" value="" style="endArrow=none;html=1;entryX=0.5;entryY=1;entryDx=0;entryDy=0;" edge="1" parent="1" target="mGwRWlhZ4jW7iht2gdLm-12">
          <mxGeometry x="10" y="40" width="50" height="50" as="geometry">
            <mxPoint x="550" y="300" as="sourcePoint" />
            <mxPoint x="440" y="250" as="targetPoint" />
          </mxGeometry>
        </mxCell>
        <mxCell id="mGwRWlhZ4jW7iht2gdLm-18" value="" style="endArrow=classic;html=1;exitX=0;exitY=0.5;exitDx=0;exitDy=0;entryX=0.045;entryY=1.1;entryDx=0;entryDy=0;entryPerimeter=0;" edge="1" parent="1" source="mGwRWlhZ4jW7iht2gdLm-17" target="mGwRWlhZ4jW7iht2gdLm-20">
          <mxGeometry x="10" y="40" width="50" height="50" as="geometry">
            <mxPoint x="390" y="400" as="sourcePoint" />
            <mxPoint x="400" y="350" as="targetPoint" />
          </mxGeometry>
        </mxCell>
        <mxCell id="mGwRWlhZ4jW7iht2gdLm-19" value="Go to Dashboard" style="ellipse;whiteSpace=wrap;html=1;" vertex="1" parent="1">
          <mxGeometry x="304" y="325" width="89" height="30" as="geometry" />
        </mxCell>
        <mxCell id="mGwRWlhZ4jW7iht2gdLm-20" value="Yes" style="text;html=1;align=center;verticalAlign=middle;resizable=0;points=[];autosize=1;strokeColor=none;" vertex="1" parent="1">
          <mxGeometry x="393" y="325" width="40" height="20" as="geometry" />
        </mxCell>
        <mxCell id="mGwRWlhZ4jW7iht2gdLm-21" value="No" style="text;html=1;align=center;verticalAlign=middle;resizable=0;points=[];autosize=1;strokeColor=none;" vertex="1" parent="1">
          <mxGeometry x="478" y="330" width="30" height="20" as="geometry" />
        </mxCell>
        <mxCell id="mGwRWlhZ4jW7iht2gdLm-22" value="Get Login Fail" style="ellipse;whiteSpace=wrap;html=1;" vertex="1" parent="1">
          <mxGeometry x="602.5" y="320" width="60" height="40" as="geometry" />
        </mxCell>
        <mxCell id="mGwRWlhZ4jW7iht2gdLm-23" value="" style="endArrow=classic;html=1;entryX=0.045;entryY=0.695;entryDx=0;entryDy=0;exitX=1;exitY=0.5;exitDx=0;exitDy=0;startArrow=none;entryPerimeter=0;" edge="1" parent="1" source="mGwRWlhZ4jW7iht2gdLm-17" target="mGwRWlhZ4jW7iht2gdLm-22">
          <mxGeometry x="10" y="32" width="50" height="50" as="geometry">
            <mxPoint x="477" y="342" as="sourcePoint" />
            <mxPoint x="570" y="342" as="targetPoint" />
          </mxGeometry>
        </mxCell>
        <mxCell id="mGwRWlhZ4jW7iht2gdLm-24" value="" style="endArrow=classic;html=1;exitX=0.5;exitY=0;exitDx=0;exitDy=0;" edge="1" parent="1">
          <mxGeometry x="5" y="40" width="50" height="50" as="geometry">
            <mxPoint x="627.5" y="200" as="sourcePoint" />
            <mxPoint x="520" y="115" as="targetPoint" />
            <Array as="points">
              <mxPoint x="625" y="115" />
            </Array>
          </mxGeometry>
        </mxCell>
        <mxCell id="mGwRWlhZ4jW7iht2gdLm-25" value="Login Again" style="ellipse;whiteSpace=wrap;html=1;" vertex="1" parent="1">
          <mxGeometry x="597.5" y="200" width="70" height="40" as="geometry" />
        </mxCell>
        <mxCell id="mGwRWlhZ4jW7iht2gdLm-26" value="" style="endArrow=classic;html=1;exitX=0.5;exitY=0;exitDx=0;exitDy=0;entryX=0.5;entryY=1;entryDx=0;entryDy=0;" edge="1" parent="1" source="mGwRWlhZ4jW7iht2gdLm-22" target="mGwRWlhZ4jW7iht2gdLm-25">
          <mxGeometry x="10" y="40" width="50" height="50" as="geometry">
            <mxPoint x="390" y="400" as="sourcePoint" />
            <mxPoint x="440" y="350" as="targetPoint" />
          </mxGeometry>
        </mxCell>
        <mxCell id="mGwRWlhZ4jW7iht2gdLm-27" value="Registration" style="rounded=1;whiteSpace=wrap;html=1;" vertex="1" parent="1">
          <mxGeometry x="139" y="40" width="80" height="30" as="geometry" />
        </mxCell>
        <mxCell id="mGwRWlhZ4jW7iht2gdLm-28" value="Enter Registration Info" style="rounded=1;whiteSpace=wrap;html=1;" vertex="1" parent="1">
          <mxGeometry x="120" y="90" width="120" height="30" as="geometry" />
        </mxCell>
        <mxCell id="mGwRWlhZ4jW7iht2gdLm-29" value="" style="endArrow=classic;html=1;" edge="1" parent="1">
          <mxGeometry x="10" y="35.14218009478673" width="50" height="58.29383886255924" as="geometry">
            <mxPoint x="179.5" y="70.11848341232228" as="sourcePoint" />
            <mxPoint x="180" y="90" as="targetPoint" />
            <Array as="points">
              <mxPoint x="180" y="81.77725118483413" />
            </Array>
          </mxGeometry>
        </mxCell>
        <mxCell id="mGwRWlhZ4jW7iht2gdLm-30" value="" style="endArrow=classic;html=1;" edge="1" parent="1">
          <mxGeometry x="10" y="15.07218009478673" width="50" height="58.29383886255924" as="geometry">
            <mxPoint x="179.5" y="120.00109004739338" as="sourcePoint" />
            <mxPoint x="180" y="139.93" as="targetPoint" />
            <Array as="points">
              <mxPoint x="180" y="131.65985781990523" />
            </Array>
          </mxGeometry>
        </mxCell>
        <mxCell id="mGwRWlhZ4jW7iht2gdLm-31" value="Name" style="ellipse;whiteSpace=wrap;html=1;" vertex="1" parent="1">
          <mxGeometry x="10" y="170.00369668246447" width="60" height="34.976303317535546" as="geometry" />
        </mxCell>
        <mxCell id="mGwRWlhZ4jW7iht2gdLm-32" value="Email" style="ellipse;whiteSpace=wrap;html=1;" vertex="1" parent="1">
          <mxGeometry x="79" y="170.00369668246447" width="60" height="34.976303317535546" as="geometry" />
        </mxCell>
        <mxCell id="mGwRWlhZ4jW7iht2gdLm-33" value="Phone" style="ellipse;whiteSpace=wrap;html=1;" vertex="1" parent="1">
          <mxGeometry x="149" y="170.00369668246447" width="60" height="34.976303317535546" as="geometry" />
        </mxCell>
        <mxCell id="mGwRWlhZ4jW7iht2gdLm-34" value="Address" style="ellipse;whiteSpace=wrap;html=1;" vertex="1" parent="1">
          <mxGeometry x="220" y="170.00369668246447" width="60" height="34.976303317535546" as="geometry" />
        </mxCell>
        <mxCell id="mGwRWlhZ4jW7iht2gdLm-35" value="Password" style="ellipse;whiteSpace=wrap;html=1;" vertex="1" parent="1">
          <mxGeometry x="290" y="170.00369668246447" width="60" height="34.976303317535546" as="geometry" />
        </mxCell>
        <mxCell id="mGwRWlhZ4jW7iht2gdLm-36" value="" style="html=1;verticalAlign=bottom;startArrow=circle;startFill=1;endArrow=open;startSize=6;endSize=8;" edge="1" parent="1">
          <mxGeometry x="10" y="9" width="80" as="geometry">
            <mxPoint x="185" y="9" as="sourcePoint" />
            <mxPoint x="185" y="40" as="targetPoint" />
          </mxGeometry>
        </mxCell>
        <mxCell id="mGwRWlhZ4jW7iht2gdLm-37" value="" style="shape=line;html=1;strokeWidth=6;" vertex="1" parent="1">
          <mxGeometry x="40" y="140" width="280" height="10" as="geometry" />
        </mxCell>
        <mxCell id="mGwRWlhZ4jW7iht2gdLm-38" value="" style="endArrow=classic;html=1;" edge="1" parent="1">
          <mxGeometry x="10" y="2.092180094786734" width="50" height="58.29383886255924" as="geometry">
            <mxPoint x="40" y="141.99739336492888" as="sourcePoint" />
            <mxPoint x="41" y="166.95" as="targetPoint" />
            <Array as="points">
              <mxPoint x="40.5" y="153.6561611374408" />
            </Array>
          </mxGeometry>
        </mxCell>
        <mxCell id="mGwRWlhZ4jW7iht2gdLm-39" value="" style="endArrow=classic;html=1;" edge="1" parent="1">
          <mxGeometry x="81.5" y="2.092180094786741" width="50" height="58.29383886255924" as="geometry">
            <mxPoint x="111.5" y="141.99739336492888" as="sourcePoint" />
            <mxPoint x="112.5" y="166.95" as="targetPoint" />
            <Array as="points">
              <mxPoint x="112" y="153.6561611374408" />
            </Array>
          </mxGeometry>
        </mxCell>
        <mxCell id="mGwRWlhZ4jW7iht2gdLm-40" value="" style="endArrow=classic;html=1;" edge="1" parent="1">
          <mxGeometry x="149.5" y="0.09218009478674105" width="50" height="58.29383886255924" as="geometry">
            <mxPoint x="179.5" y="139.99739336492888" as="sourcePoint" />
            <mxPoint x="180.5" y="164.95" as="targetPoint" />
            <Array as="points">
              <mxPoint x="180" y="151.6561611374408" />
            </Array>
          </mxGeometry>
        </mxCell>
        <mxCell id="mGwRWlhZ4jW7iht2gdLm-41" value="" style="endArrow=classic;html=1;" edge="1" parent="1">
          <mxGeometry x="218.5" y="2.092180094786741" width="50" height="58.29383886255924" as="geometry">
            <mxPoint x="248.5" y="141.99739336492888" as="sourcePoint" />
            <mxPoint x="249.5" y="166.95" as="targetPoint" />
            <Array as="points">
              <mxPoint x="249" y="153.6561611374408" />
            </Array>
          </mxGeometry>
        </mxCell>
        <mxCell id="mGwRWlhZ4jW7iht2gdLm-42" value="" style="endArrow=classic;html=1;" edge="1" parent="1">
          <mxGeometry x="289" y="1.092180094786741" width="50" height="58.29383886255924" as="geometry">
            <mxPoint x="319" y="140.99739336492888" as="sourcePoint" />
            <mxPoint x="320" y="165.95" as="targetPoint" />
            <Array as="points">
              <mxPoint x="319.5" y="152.6561611374408" />
            </Array>
          </mxGeometry>
        </mxCell>
        <mxCell id="mGwRWlhZ4jW7iht2gdLm-43" value="" style="endArrow=classic;html=1;" edge="1" parent="1">
          <mxGeometry x="10" y="65.07218009478675" width="50" height="58.29383886255924" as="geometry">
            <mxPoint x="40" y="204.9773933649289" as="sourcePoint" />
            <mxPoint x="41" y="230" as="targetPoint" />
            <Array as="points">
              <mxPoint x="40.5" y="216.63616113744075" />
            </Array>
          </mxGeometry>
        </mxCell>
        <mxCell id="mGwRWlhZ4jW7iht2gdLm-44" value="" style="endArrow=classic;html=1;" edge="1" parent="1">
          <mxGeometry x="78.5" y="65.07218009478675" width="50" height="58.29383886255924" as="geometry">
            <mxPoint x="108.5" y="204.97739336492896" as="sourcePoint" />
            <mxPoint x="109.5" y="230" as="targetPoint" />
            <Array as="points">
              <mxPoint x="109" y="216.63616113744075" />
            </Array>
          </mxGeometry>
        </mxCell>
        <mxCell id="mGwRWlhZ4jW7iht2gdLm-45" value="" style="endArrow=classic;html=1;" edge="1" parent="1">
          <mxGeometry x="148.5" y="65.07218009478675" width="50" height="58.29383886255924" as="geometry">
            <mxPoint x="178.5" y="204.97739336492896" as="sourcePoint" />
            <mxPoint x="179.5" y="230" as="targetPoint" />
            <Array as="points">
              <mxPoint x="179" y="216.63616113744075" />
            </Array>
          </mxGeometry>
        </mxCell>
        <mxCell id="mGwRWlhZ4jW7iht2gdLm-46" value="" style="endArrow=classic;html=1;" edge="1" parent="1">
          <mxGeometry x="219.5" y="65.07218009478675" width="50" height="58.29383886255924" as="geometry">
            <mxPoint x="249.5" y="204.97739336492896" as="sourcePoint" />
            <mxPoint x="250.5" y="230" as="targetPoint" />
            <Array as="points">
              <mxPoint x="250" y="216.63616113744075" />
            </Array>
          </mxGeometry>
        </mxCell>
        <mxCell id="mGwRWlhZ4jW7iht2gdLm-47" value="" style="endArrow=classic;html=1;" edge="1" parent="1">
          <mxGeometry x="289" y="65.07218009478675" width="50" height="58.29383886255924" as="geometry">
            <mxPoint x="319" y="204.97739336492896" as="sourcePoint" />
            <mxPoint x="320" y="230" as="targetPoint" />
            <Array as="points">
              <mxPoint x="319.5" y="216.63616113744075" />
            </Array>
          </mxGeometry>
        </mxCell>
        <mxCell id="mGwRWlhZ4jW7iht2gdLm-48" value="" style="shape=line;html=1;strokeWidth=6;" vertex="1" parent="1">
          <mxGeometry x="39" y="230" width="280" height="10" as="geometry" />
        </mxCell>
        <mxCell id="mGwRWlhZ4jW7iht2gdLm-49" value="" style="shape=line;html=1;strokeWidth=6;" vertex="1" parent="1">
          <mxGeometry x="380" y="150" width="170" height="10" as="geometry" />
        </mxCell>
        <mxCell id="mGwRWlhZ4jW7iht2gdLm-50" value="" style="endArrow=classic;html=1;" edge="1" parent="1">
          <mxGeometry x="-128" y="-28" width="50" height="50" as="geometry">
            <mxPoint x="382" y="152" as="sourcePoint" />
            <mxPoint x="383" y="172" as="targetPoint" />
            <Array as="points">
              <mxPoint x="382.5" y="162" />
            </Array>
          </mxGeometry>
        </mxCell>
        <mxCell id="mGwRWlhZ4jW7iht2gdLm-51" value="" style="endArrow=classic;html=1;exitX=0.592;exitY=0.48;exitDx=0;exitDy=0;exitPerimeter=0;entryX=0.5;entryY=0;entryDx=0;entryDy=0;" edge="1" parent="1" target="mGwRWlhZ4jW7iht2gdLm-17">
          <mxGeometry x="-55.5" y="120" width="50" height="50" as="geometry">
            <mxPoint x="487.576" y="299.79999999999995" as="sourcePoint" />
            <mxPoint x="480" y="320" as="targetPoint" />
            <Array as="points" />
          </mxGeometry>
        </mxCell>
        <mxCell id="mGwRWlhZ4jW7iht2gdLm-53" value="" style="shape=line;html=1;strokeWidth=6;" vertex="1" parent="1">
          <mxGeometry x="40" y="382" width="640" height="10" as="geometry" />
        </mxCell>
        <mxCell id="mGwRWlhZ4jW7iht2gdLm-54" value="" style="endArrow=classic;html=1;exitX=0.5;exitY=1;exitDx=0;exitDy=0;" edge="1" parent="1" source="mGwRWlhZ4jW7iht2gdLm-19">
          <mxGeometry width="50" height="50" relative="1" as="geometry">
            <mxPoint x="390" y="220" as="sourcePoint" />
            <mxPoint x="347" y="380" as="targetPoint" />
          </mxGeometry>
        </mxCell>
        <mxCell id="mGwRWlhZ4jW7iht2gdLm-17" value="Invalid" style="rhombus;whiteSpace=wrap;html=1;" vertex="1" parent="1">
          <mxGeometry x="475" y="330" width="45" height="30" as="geometry" />
        </mxCell>
        <mxCell id="mGwRWlhZ4jW7iht2gdLm-56" value="" style="shape=line;html=1;strokeWidth=6;" vertex="1" parent="1">
          <mxGeometry x="393" y="298" width="157" height="10" as="geometry" />
        </mxCell>
        <mxCell id="mGwRWlhZ4jW7iht2gdLm-57" value="" style="endArrow=classic;html=1;" edge="1" parent="1">
          <mxGeometry x="-100" y="110" width="50" height="50" as="geometry">
            <mxPoint x="69.5" y="390" as="sourcePoint" />
            <mxPoint x="70" y="410" as="targetPoint" />
            <Array as="points">
              <mxPoint x="70" y="400" />
            </Array>
          </mxGeometry>
        </mxCell>
        <mxCell id="mGwRWlhZ4jW7iht2gdLm-58" value="" style="endArrow=classic;html=1;" edge="1" parent="1">
          <mxGeometry x="90.5" y="102" width="50" height="50" as="geometry">
            <mxPoint x="260" y="382" as="sourcePoint" />
            <mxPoint x="260.5" y="402" as="targetPoint" />
            <Array as="points">
              <mxPoint x="260.5" y="392" />
            </Array>
          </mxGeometry>
        </mxCell>
        <mxCell id="mGwRWlhZ4jW7iht2gdLm-59" value="" style="endArrow=classic;html=1;" edge="1" parent="1">
          <mxGeometry x="280.5" y="110" width="50" height="50" as="geometry">
            <mxPoint x="450" y="390" as="sourcePoint" />
            <mxPoint x="450.5" y="410" as="targetPoint" />
            <Array as="points">
              <mxPoint x="450.5" y="400" />
            </Array>
          </mxGeometry>
        </mxCell>
        <mxCell id="mGwRWlhZ4jW7iht2gdLm-60" value="Can See Regular Trip Info" style="ellipse;whiteSpace=wrap;html=1;" vertex="1" parent="1">
          <mxGeometry x="20" y="410" width="100" height="60" as="geometry" />
        </mxCell>
        <mxCell id="mGwRWlhZ4jW7iht2gdLm-61" value="Click to Regular Trip Info" style="ellipse;whiteSpace=wrap;html=1;" vertex="1" parent="1">
          <mxGeometry x="20" y="490" width="100" height="60" as="geometry" />
        </mxCell>
        <mxCell id="mGwRWlhZ4jW7iht2gdLm-62" value="" style="endArrow=classic;html=1;" edge="1" parent="1">
          <mxGeometry x="-100.5" y="190" width="50" height="50" as="geometry">
            <mxPoint x="69" y="470" as="sourcePoint" />
            <mxPoint x="69.5" y="490" as="targetPoint" />
            <Array as="points">
              <mxPoint x="69.5" y="480" />
            </Array>
          </mxGeometry>
        </mxCell>
        <mxCell id="mGwRWlhZ4jW7iht2gdLm-63" value="Get the Transport by Clicking at Transport Info" style="ellipse;whiteSpace=wrap;html=1;" vertex="1" parent="1">
          <mxGeometry x="209" y="400" width="100" height="60" as="geometry" />
        </mxCell>
        <mxCell id="mGwRWlhZ4jW7iht2gdLm-64" value="" style="endArrow=classic;html=1;" edge="1" parent="1">
          <mxGeometry x="89" y="180" width="50" height="50" as="geometry">
            <mxPoint x="258.5" y="460" as="sourcePoint" />
            <mxPoint x="440" y="570" as="targetPoint" />
            <Array as="points">
              <mxPoint x="259" y="480" />
              <mxPoint x="440" y="480" />
            </Array>
          </mxGeometry>
        </mxCell>
        <mxCell id="mGwRWlhZ4jW7iht2gdLm-66" value="Get The Notification if any Urgent Trip" style="ellipse;whiteSpace=wrap;html=1;" vertex="1" parent="1">
          <mxGeometry x="405" y="410" width="100" height="60" as="geometry" />
        </mxCell>
        <mxCell id="mGwRWlhZ4jW7iht2gdLm-67" value="" style="endArrow=classic;html=1;" edge="1" parent="1">
          <mxGeometry x="500.5" y="110" width="50" height="50" as="geometry">
            <mxPoint x="670" y="390" as="sourcePoint" />
            <mxPoint x="670.5" y="410" as="targetPoint" />
            <Array as="points">
              <mxPoint x="670.5" y="400" />
            </Array>
          </mxGeometry>
        </mxCell>
        <mxCell id="mGwRWlhZ4jW7iht2gdLm-68" value="View Account Info" style="ellipse;whiteSpace=wrap;html=1;" vertex="1" parent="1">
          <mxGeometry x="630" y="410" width="100" height="60" as="geometry" />
        </mxCell>
        <mxCell id="mGwRWlhZ4jW7iht2gdLm-69" value="" style="shape=line;html=1;strokeWidth=6;" vertex="1" parent="1">
          <mxGeometry x="40" y="575" width="280" height="10" as="geometry" />
        </mxCell>
        <mxCell id="mGwRWlhZ4jW7iht2gdLm-70" value="" style="endArrow=classic;html=1;" edge="1" parent="1">
          <mxGeometry x="-100" y="270" width="50" height="50" as="geometry">
            <mxPoint x="69.5" y="550" as="sourcePoint" />
            <mxPoint x="70" y="570" as="targetPoint" />
            <Array as="points">
              <mxPoint x="70" y="560" />
            </Array>
          </mxGeometry>
        </mxCell>
        <mxCell id="mGwRWlhZ4jW7iht2gdLm-71" value="" style="endArrow=classic;html=1;" edge="1" parent="1">
          <mxGeometry x="-129.5" y="303" width="50" height="50" as="geometry">
            <mxPoint x="40" y="583" as="sourcePoint" />
            <mxPoint x="40.5" y="603" as="targetPoint" />
            <Array as="points">
              <mxPoint x="40.5" y="593" />
            </Array>
          </mxGeometry>
        </mxCell>
        <mxCell id="mGwRWlhZ4jW7iht2gdLm-72" value="" style="endArrow=classic;html=1;" edge="1" parent="1">
          <mxGeometry x="-69.5" y="303" width="50" height="50" as="geometry">
            <mxPoint x="100" y="583" as="sourcePoint" />
            <mxPoint x="100.5" y="603" as="targetPoint" />
            <Array as="points">
              <mxPoint x="100.5" y="593" />
            </Array>
          </mxGeometry>
        </mxCell>
        <mxCell id="mGwRWlhZ4jW7iht2gdLm-73" value="" style="endArrow=classic;html=1;" edge="1" parent="1">
          <mxGeometry x="-20.5" y="303" width="50" height="50" as="geometry">
            <mxPoint x="149" y="583" as="sourcePoint" />
            <mxPoint x="149.5" y="603" as="targetPoint" />
            <Array as="points">
              <mxPoint x="149.5" y="593" />
            </Array>
          </mxGeometry>
        </mxCell>
        <mxCell id="mGwRWlhZ4jW7iht2gdLm-74" value="" style="endArrow=classic;html=1;" edge="1" parent="1">
          <mxGeometry x="60.5" y="305" width="50" height="50" as="geometry">
            <mxPoint x="230" y="585" as="sourcePoint" />
            <mxPoint x="230.5" y="605" as="targetPoint" />
            <Array as="points">
              <mxPoint x="230.5" y="595" />
            </Array>
          </mxGeometry>
        </mxCell>
        <mxCell id="mGwRWlhZ4jW7iht2gdLm-75" value="" style="endArrow=classic;html=1;" edge="1" parent="1">
          <mxGeometry x="148.5" y="305" width="50" height="50" as="geometry">
            <mxPoint x="318" y="585" as="sourcePoint" />
            <mxPoint x="318.5" y="605" as="targetPoint" />
            <Array as="points">
              <mxPoint x="318.5" y="595" />
            </Array>
          </mxGeometry>
        </mxCell>
        <mxCell id="mGwRWlhZ4jW7iht2gdLm-76" value="Date" style="ellipse;whiteSpace=wrap;html=1;" vertex="1" parent="1">
          <mxGeometry x="20" y="603" width="50" height="30" as="geometry" />
        </mxCell>
        <mxCell id="mGwRWlhZ4jW7iht2gdLm-77" value="Time" style="ellipse;whiteSpace=wrap;html=1;" vertex="1" parent="1">
          <mxGeometry x="79" y="603" width="50" height="30" as="geometry" />
        </mxCell>
        <mxCell id="mGwRWlhZ4jW7iht2gdLm-78" value="Location" style="ellipse;whiteSpace=wrap;html=1;" vertex="1" parent="1">
          <mxGeometry x="139" y="603" width="50" height="30" as="geometry" />
        </mxCell>
        <mxCell id="mGwRWlhZ4jW7iht2gdLm-79" value="Transport Type &amp;amp; No" style="ellipse;whiteSpace=wrap;html=1;" vertex="1" parent="1">
          <mxGeometry x="200" y="603" width="90" height="37" as="geometry" />
        </mxCell>
        <mxCell id="mGwRWlhZ4jW7iht2gdLm-80" value="Driver Name" style="ellipse;whiteSpace=wrap;html=1;" vertex="1" parent="1">
          <mxGeometry x="295" y="603" width="50" height="30" as="geometry" />
        </mxCell>
        <mxCell id="mGwRWlhZ4jW7iht2gdLm-81" value="" style="shape=line;html=1;strokeWidth=6;" vertex="1" parent="1">
          <mxGeometry x="400" y="574" width="100" height="10" as="geometry" />
        </mxCell>
        <mxCell id="mGwRWlhZ4jW7iht2gdLm-82" value="Transport Type" style="ellipse;whiteSpace=wrap;html=1;" vertex="1" parent="1">
          <mxGeometry x="360" y="603" width="90" height="30" as="geometry" />
        </mxCell>
        <mxCell id="mGwRWlhZ4jW7iht2gdLm-83" value="Transport No" style="ellipse;whiteSpace=wrap;html=1;" vertex="1" parent="1">
          <mxGeometry x="460" y="603" width="80" height="30" as="geometry" />
        </mxCell>
        <mxCell id="mGwRWlhZ4jW7iht2gdLm-84" value="" style="endArrow=classic;html=1;" edge="1" parent="1">
          <mxGeometry x="235" y="301" width="50" height="50" as="geometry">
            <mxPoint x="404.5" y="581" as="sourcePoint" />
            <mxPoint x="405" y="601" as="targetPoint" />
            <Array as="points">
              <mxPoint x="405" y="591" />
            </Array>
          </mxGeometry>
        </mxCell>
        <mxCell id="mGwRWlhZ4jW7iht2gdLm-85" value="" style="endArrow=classic;html=1;" edge="1" parent="1">
          <mxGeometry x="327.5" y="303" width="50" height="50" as="geometry">
            <mxPoint x="497" y="583" as="sourcePoint" />
            <mxPoint x="497.5" y="603" as="targetPoint" />
            <Array as="points">
              <mxPoint x="497.5" y="593" />
            </Array>
          </mxGeometry>
        </mxCell>
        <mxCell id="mGwRWlhZ4jW7iht2gdLm-86" value="" style="endArrow=classic;html=1;" edge="1" parent="1">
          <mxGeometry x="280.5" y="190" width="50" height="50" as="geometry">
            <mxPoint x="450" y="470" as="sourcePoint" />
            <mxPoint x="603" y="585" as="targetPoint" />
            <Array as="points">
              <mxPoint x="450.5" y="490" />
              <mxPoint x="603" y="490" />
            </Array>
          </mxGeometry>
        </mxCell>
        <mxCell id="mGwRWlhZ4jW7iht2gdLm-87" value="" style="shape=line;html=1;strokeWidth=6;" vertex="1" parent="1">
          <mxGeometry x="567.5" y="580" width="82.5" height="10" as="geometry" />
        </mxCell>
        <mxCell id="mGwRWlhZ4jW7iht2gdLm-88" value="Time" style="ellipse;whiteSpace=wrap;html=1;" vertex="1" parent="1">
          <mxGeometry x="552.5" y="603" width="50" height="30" as="geometry" />
        </mxCell>
        <mxCell id="mGwRWlhZ4jW7iht2gdLm-90" value="Location" style="ellipse;whiteSpace=wrap;html=1;" vertex="1" parent="1">
          <mxGeometry x="617.5" y="603" width="50" height="30" as="geometry" />
        </mxCell>
        <mxCell id="mGwRWlhZ4jW7iht2gdLm-91" value="" style="endArrow=classic;html=1;" edge="1" parent="1">
          <mxGeometry x="407.5" y="305" width="50" height="50" as="geometry">
            <mxPoint x="577" y="585" as="sourcePoint" />
            <mxPoint x="577.5" y="605" as="targetPoint" />
            <Array as="points">
              <mxPoint x="577.5" y="595" />
            </Array>
          </mxGeometry>
        </mxCell>
        <mxCell id="mGwRWlhZ4jW7iht2gdLm-92" value="" style="endArrow=classic;html=1;" edge="1" parent="1">
          <mxGeometry x="472.5" y="305" width="50" height="50" as="geometry">
            <mxPoint x="642" y="585" as="sourcePoint" />
            <mxPoint x="642.5" y="605" as="targetPoint" />
            <Array as="points">
              <mxPoint x="642.5" y="595" />
            </Array>
          </mxGeometry>
        </mxCell>
        <mxCell id="mGwRWlhZ4jW7iht2gdLm-93" value="" style="endArrow=classic;html=1;exitX=0.5;exitY=1;exitDx=0;exitDy=0;" edge="1" parent="1" source="mGwRWlhZ4jW7iht2gdLm-68">
          <mxGeometry width="50" height="50" relative="1" as="geometry">
            <mxPoint x="390" y="510" as="sourcePoint" />
            <mxPoint x="720" y="600" as="targetPoint" />
            <Array as="points">
              <mxPoint x="680" y="490" />
              <mxPoint x="720" y="490" />
            </Array>
          </mxGeometry>
        </mxCell>
        <mxCell id="mGwRWlhZ4jW7iht2gdLm-94" value="Update Info" style="ellipse;whiteSpace=wrap;html=1;" vertex="1" parent="1">
          <mxGeometry x="700" y="603" width="50" height="30" as="geometry" />
        </mxCell>
        <mxCell id="mGwRWlhZ4jW7iht2gdLm-95" value="" style="shape=line;html=1;strokeWidth=6;" vertex="1" parent="1">
          <mxGeometry x="567.5" y="650" width="82.5" height="10" as="geometry" />
        </mxCell>
        <mxCell id="mGwRWlhZ4jW7iht2gdLm-96" value="" style="endArrow=classic;html=1;" edge="1" parent="1">
          <mxGeometry x="407.5" y="352" width="50" height="50" as="geometry">
            <mxPoint x="577" y="632" as="sourcePoint" />
            <mxPoint x="577.5" y="652" as="targetPoint" />
            <Array as="points">
              <mxPoint x="577.5" y="642" />
            </Array>
          </mxGeometry>
        </mxCell>
        <mxCell id="mGwRWlhZ4jW7iht2gdLm-97" value="" style="endArrow=classic;html=1;" edge="1" parent="1">
          <mxGeometry x="472.5" y="353" width="50" height="50" as="geometry">
            <mxPoint x="642" y="633" as="sourcePoint" />
            <mxPoint x="642.5" y="653" as="targetPoint" />
            <Array as="points">
              <mxPoint x="642.5" y="643" />
            </Array>
          </mxGeometry>
        </mxCell>
        <mxCell id="mGwRWlhZ4jW7iht2gdLm-99" value="" style="shape=line;html=1;strokeWidth=6;" vertex="1" parent="1">
          <mxGeometry x="39" y="650" width="280" height="10" as="geometry" />
        </mxCell>
        <mxCell id="mGwRWlhZ4jW7iht2gdLm-100" value="" style="endArrow=classic;html=1;" edge="1" parent="1">
          <mxGeometry x="139.5" y="350" width="50" height="50" as="geometry">
            <mxPoint x="309" y="630" as="sourcePoint" />
            <mxPoint x="309.5" y="650" as="targetPoint" />
            <Array as="points">
              <mxPoint x="309.5" y="640" />
            </Array>
          </mxGeometry>
        </mxCell>
        <mxCell id="mGwRWlhZ4jW7iht2gdLm-101" value="" style="endArrow=classic;html=1;" edge="1" parent="1">
          <mxGeometry x="433" y="380" width="50" height="50" as="geometry">
            <mxPoint x="602.5" y="660" as="sourcePoint" />
            <mxPoint x="603" y="680" as="targetPoint" />
            <Array as="points">
              <mxPoint x="603" y="670" />
            </Array>
          </mxGeometry>
        </mxCell>
        <mxCell id="mGwRWlhZ4jW7iht2gdLm-102" value="" style="endArrow=classic;html=1;" edge="1" parent="1">
          <mxGeometry x="80" y="353" width="50" height="50" as="geometry">
            <mxPoint x="250" y="643" as="sourcePoint" />
            <mxPoint x="250" y="653" as="targetPoint" />
            <Array as="points">
              <mxPoint x="250" y="643" />
            </Array>
          </mxGeometry>
        </mxCell>
        <mxCell id="mGwRWlhZ4jW7iht2gdLm-103" value="" style="endArrow=classic;html=1;" edge="1" parent="1">
          <mxGeometry x="-9.5" y="352" width="50" height="50" as="geometry">
            <mxPoint x="160" y="632" as="sourcePoint" />
            <mxPoint x="160.5" y="652" as="targetPoint" />
            <Array as="points">
              <mxPoint x="160.5" y="642" />
            </Array>
          </mxGeometry>
        </mxCell>
        <mxCell id="mGwRWlhZ4jW7iht2gdLm-104" value="" style="endArrow=classic;html=1;" edge="1" parent="1">
          <mxGeometry x="-66" y="353" width="50" height="50" as="geometry">
            <mxPoint x="103.5" y="633" as="sourcePoint" />
            <mxPoint x="104" y="653" as="targetPoint" />
            <Array as="points">
              <mxPoint x="104" y="643" />
            </Array>
          </mxGeometry>
        </mxCell>
        <mxCell id="mGwRWlhZ4jW7iht2gdLm-105" value="" style="endArrow=classic;html=1;" edge="1" parent="1">
          <mxGeometry x="-129.5" y="352" width="50" height="50" as="geometry">
            <mxPoint x="40" y="632" as="sourcePoint" />
            <mxPoint x="40.5" y="652" as="targetPoint" />
            <Array as="points">
              <mxPoint x="40.5" y="642" />
            </Array>
          </mxGeometry>
        </mxCell>
        <mxCell id="mGwRWlhZ4jW7iht2gdLm-106" value="" style="endArrow=classic;html=1;" edge="1" parent="1">
          <mxGeometry y="378" width="50" height="50" as="geometry">
            <mxPoint x="169.5" y="658" as="sourcePoint" />
            <mxPoint x="170" y="678" as="targetPoint" />
            <Array as="points">
              <mxPoint x="170" y="668" />
            </Array>
          </mxGeometry>
        </mxCell>
        <mxCell id="mGwRWlhZ4jW7iht2gdLm-107" value="" style="endArrow=classic;html=1;exitX=0.5;exitY=0.9;exitDx=0;exitDy=0;exitPerimeter=0;" edge="1" parent="1" source="mGwRWlhZ4jW7iht2gdLm-94">
          <mxGeometry x="555" y="360" width="50" height="50" as="geometry">
            <mxPoint x="724.5" y="640" as="sourcePoint" />
            <mxPoint x="725" y="680" as="targetPoint" />
            <Array as="points">
              <mxPoint x="725" y="650" />
            </Array>
          </mxGeometry>
        </mxCell>
        <mxCell id="mGwRWlhZ4jW7iht2gdLm-108" value="" style="shape=line;html=1;strokeWidth=6;" vertex="1" parent="1">
          <mxGeometry x="40" y="680" width="690" height="10" as="geometry" />
        </mxCell>
        <mxCell id="mGwRWlhZ4jW7iht2gdLm-110" value="" style="endArrow=classic;html=1;" edge="1" parent="1">
          <mxGeometry x="210.5" y="405" width="50" height="50" as="geometry">
            <mxPoint x="380" y="685" as="sourcePoint" />
            <mxPoint x="380.5" y="705" as="targetPoint" />
            <Array as="points">
              <mxPoint x="380.5" y="695" />
            </Array>
          </mxGeometry>
        </mxCell>
        <mxCell id="mGwRWlhZ4jW7iht2gdLm-111" value="Logout" style="ellipse;whiteSpace=wrap;html=1;" vertex="1" parent="1">
          <mxGeometry x="340" y="705" width="85" height="30" as="geometry" />
        </mxCell>
        <mxCell id="mGwRWlhZ4jW7iht2gdLm-112" value="" style="endArrow=classic;html=1;" edge="1" parent="1">
          <mxGeometry x="212.5" y="455" width="50" height="50" as="geometry">
            <mxPoint x="382" y="735" as="sourcePoint" />
            <mxPoint x="382.5" y="755" as="targetPoint" />
            <Array as="points">
              <mxPoint x="382.5" y="745" />
            </Array>
          </mxGeometry>
        </mxCell>
        <mxCell id="mGwRWlhZ4jW7iht2gdLm-113" value="" style="ellipse;html=1;shape=endState;fillColor=#000000;strokeColor=#ff0000;" vertex="1" parent="1">
          <mxGeometry x="367.5" y="760" width="30" height="30" as="geometry" />
        </mxCell>
      </root>
    </mxGraphModel>
  </diagram>
</mxfile>
